<?xml version="1.0" encoding="utf-8"?>
<!-- Generator: Adobe Illustrator 19.2.1, SVG Export Plug-In . SVG Version: 6.00 Build 0)  -->
<!-- Original created by the talented Adyrd (https://github.com/Adryd), animated by by izy521 (https://github.com/izy521) -->
<svg version="1.1" id="Layer_1" xmlns="http://www.w3.org/2000/svg" xmlns:xlink="http://www.w3.org/1999/xlink" x="0px" y="0px"
	 viewBox="0 0 416 286" style="enable-background:new 0 0 416 286;" xml:space="preserve">
<style type="text/css">
	.st0{fill:#CE4191;}
	.st1{fill:#4254BC;}
	.st2{fill:#42B4BA;}
	.st3{fill:none;}
	.st4{fill:#FFFFFF;fill-opacity:0.2;}
	.st5{fill-opacity:0.1;}
	.st6{fill-opacity:0.2;}
	.st7{fill:#FFFFFF;fill-opacity:0.1;}

	#logo {
		transform: rotate(-90deg);

		animation-name: rot;
		animation-duration: 3.2s;
		animation-iteration-count: 2;
		transform-origin: 50% 50%;
	}

	@keyframes rot {
		50% { transform: rotate(-180deg); }
		100% { transform: rotate(-90deg); }
	}
</style>
<g id="logo">
<path class="st0" d="M199.3,35.8L158,107.2l41.3,71.5l41.3-71.5L199.3,35.8z"/>
<path class="st1" d="M75.4,107.4l82.6,143h82.6L116.7,36L75.4,107.4z"/>
<path class="st2" d="M281.7,35.9L157.9,250.5h82.6l82.6-143L281.7,35.9z"/>
<path class="st3" d="M0-65h416v416H0V-65z"/>
<path class="st4" d="M158,107.1l-41.3-71.5l-41.3,71.5H158z"/>
<path class="st3" d="M158,107.2l-41.3,71.5l-41.3-71.5H158z"/>
<path class="st5" d="M199.2,178.9L158,250.4l-41.3-71.5H199.2z"/>
<path class="st6" d="M240.6,107.3l-41.3-71.5L158,107.3H240.6z"/>
<path class="st4" d="M323.2,107.4L282,35.9l-41.3,71.5H323.2z"/>
<path class="st7" d="M323.2,107.2L282,178.7l-41.3-71.5H323.2z"/>
<path class="st5" d="M281.8,178.9l-41.3,71.5l-41.3-71.5H281.8z"/>
<path class="st6" d="M240.6,250.4l-41.3-71.5L158,250.4H240.6z"/>
<path class="st7" d="M158,107.2l-41.3,71.5l-41.3-71.5H158z"/>
</g>
</svg>
